<svg width="90" height="65" viewBox="0 0 90 65" fill="none" xmlns="http://www.w3.org/2000/svg">
<g clip-path="url(#clip0_177_2)">
<path d="M51.1201 26.0414L39.7701 0L10.1201 65H34.1026L51.1201 26.0414Z" fill="#F89514"/>
</g>
<path d="M6.07812 34.3848C6.88542 34.3848 7.73438 34.4134 8.625 34.4707C9.51562 34.528 10.4531 34.64 11.4375 34.8066V36.791C11.0885 36.6921 10.6901 36.5983 10.2422 36.5098C9.85677 36.4368 9.39323 36.3665 8.85156 36.2988C8.3099 36.2311 7.69792 36.1868 7.01562 36.166V46.2754H5.15625V36.166C4.47396 36.1868 3.86198 36.2311 3.32031 36.2988C2.77865 36.3665 2.3151 36.4368 1.92969 36.5098C1.48177 36.5983 1.08333 36.6921 0.734375 36.791V34.8066C1.70833 34.64 2.64583 34.528 3.54688 34.4707C4.44792 34.4134 5.29167 34.3848 6.07812 34.3848ZM18.3125 37.2129C18.75 37.2129 19.1849 37.2337 19.6172 37.2754C20.0547 37.3171 20.474 37.3848 20.875 37.4785C21.276 37.5723 21.651 37.6895 22 37.8301C22.349 37.9707 22.651 38.14 22.9062 38.3379C23.1667 38.5358 23.3698 38.765 23.5156 39.0254C23.6615 39.2806 23.7344 39.5671 23.7344 39.8848V43.9316C23.7344 44.2129 23.6615 44.4707 23.5156 44.7051C23.3698 44.9395 23.1667 45.1504 22.9062 45.3379C22.651 45.5202 22.349 45.679 22 45.8145C21.651 45.9499 21.276 46.0618 20.875 46.1504C20.474 46.2389 20.0547 46.304 19.6172 46.3457C19.1797 46.3926 18.7448 46.416 18.3125 46.416C17.8802 46.416 17.4453 46.3926 17.0078 46.3457C16.5755 46.304 16.1589 46.2389 15.7578 46.1504C15.3568 46.0618 14.9818 45.9499 14.6328 45.8145C14.2891 45.679 13.987 45.5202 13.7266 45.3379C13.4714 45.1504 13.2708 44.9421 13.125 44.7129C12.9792 44.4785 12.9062 44.2181 12.9062 43.9316V39.8848C12.9062 39.5671 12.9792 39.2806 13.125 39.0254C13.2708 38.765 13.4714 38.5358 13.7266 38.3379C13.987 38.14 14.2891 37.9707 14.6328 37.8301C14.9818 37.6895 15.3568 37.5723 15.7578 37.4785C16.1589 37.3848 16.5755 37.3171 17.0078 37.2754C17.4453 37.2337 17.8802 37.2129 18.3125 37.2129ZM14.8906 43.4316C14.8906 43.6712 14.9896 43.8796 15.1875 44.0566C15.3906 44.2285 15.6536 44.3743 15.9766 44.4941C16.2995 44.6087 16.6641 44.6947 17.0703 44.752C17.4818 44.8092 17.8958 44.8379 18.3125 44.8379C18.75 44.8379 19.1719 44.8066 19.5781 44.7441C19.9896 44.6816 20.3542 44.5931 20.6719 44.4785C20.9896 44.3587 21.2422 44.2129 21.4297 44.041C21.6224 43.8639 21.7188 43.6608 21.7188 43.4316V40.1816C21.7188 39.9577 21.6224 39.7572 21.4297 39.5801C21.2422 39.3978 20.9896 39.2467 20.6719 39.127C20.3542 39.002 19.9896 38.9082 19.5781 38.8457C19.1719 38.778 18.75 38.7441 18.3125 38.7441C17.8958 38.7441 17.4818 38.7754 17.0703 38.8379C16.6641 38.8952 16.2995 38.9837 15.9766 39.1035C15.6536 39.2233 15.3906 39.3743 15.1875 39.5566C14.9896 39.7337 14.8906 39.9421 14.8906 40.1816V43.4316ZM30.8594 37.2129C31.2969 37.2129 31.7318 37.2337 32.1641 37.2754C32.6016 37.3171 33.0208 37.3848 33.4219 37.4785C33.8229 37.5723 34.1979 37.6895 34.5469 37.8301C34.8958 37.9707 35.1979 38.14 35.4531 38.3379C35.7135 38.5358 35.9167 38.765 36.0625 39.0254C36.2083 39.2806 36.2812 39.5671 36.2812 39.8848V43.9316C36.2812 44.2129 36.2083 44.4707 36.0625 44.7051C35.9167 44.9395 35.7135 45.1504 35.4531 45.3379C35.1979 45.5202 34.8958 45.679 34.5469 45.8145C34.1979 45.9499 33.8229 46.0618 33.4219 46.1504C33.0208 46.2389 32.6016 46.304 32.1641 46.3457C31.7266 46.3926 31.2917 46.416 30.8594 46.416C30.4271 46.416 29.9922 46.3926 29.5547 46.3457C29.1224 46.304 28.7057 46.2389 28.3047 46.1504C27.9036 46.0618 27.5286 45.9499 27.1797 45.8145C26.8359 45.679 26.5339 45.5202 26.2734 45.3379C26.0182 45.1504 25.8177 44.9421 25.6719 44.7129C25.526 44.4785 25.4531 44.2181 25.4531 43.9316V39.8848C25.4531 39.5671 25.526 39.2806 25.6719 39.0254C25.8177 38.765 26.0182 38.5358 26.2734 38.3379C26.5339 38.14 26.8359 37.9707 27.1797 37.8301C27.5286 37.6895 27.9036 37.5723 28.3047 37.4785C28.7057 37.3848 29.1224 37.3171 29.5547 37.2754C29.9922 37.2337 30.4271 37.2129 30.8594 37.2129ZM27.4375 43.4316C27.4375 43.6712 27.5365 43.8796 27.7344 44.0566C27.9375 44.2285 28.2005 44.3743 28.5234 44.4941C28.8464 44.6087 29.2109 44.6947 29.6172 44.752C30.0286 44.8092 30.4427 44.8379 30.8594 44.8379C31.2969 44.8379 31.7188 44.8066 32.125 44.7441C32.5365 44.6816 32.901 44.5931 33.2188 44.4785C33.5365 44.3587 33.7891 44.2129 33.9766 44.041C34.1693 43.8639 34.2656 43.6608 34.2656 43.4316V40.1816C34.2656 39.9577 34.1693 39.7572 33.9766 39.5801C33.7891 39.3978 33.5365 39.2467 33.2188 39.127C32.901 39.002 32.5365 38.9082 32.125 38.8457C31.7188 38.778 31.2969 38.7441 30.8594 38.7441C30.4427 38.7441 30.0286 38.7754 29.6172 38.8379C29.2109 38.8952 28.8464 38.9837 28.5234 39.1035C28.2005 39.2233 27.9375 39.3743 27.7344 39.5566C27.5365 39.7337 27.4375 39.9421 27.4375 40.1816V43.4316ZM40.2344 46.2598H38.4531V34.5254H40.2344V46.2598ZM48.4062 34.3535C49.1927 34.3535 49.9349 34.4238 50.6328 34.5645C51.3307 34.7051 51.9401 34.9004 52.4609 35.1504C52.987 35.4004 53.4036 35.6999 53.7109 36.0488C54.0182 36.3978 54.1719 36.7806 54.1719 37.1973V38.4629H52.1406V37.791C52.1406 37.5671 52.0547 37.3535 51.8828 37.1504C51.7109 36.9473 51.4635 36.7676 51.1406 36.6113C50.8229 36.4551 50.4323 36.3327 49.9688 36.2441C49.5104 36.1504 48.9896 36.1035 48.4062 36.1035C47.8438 36.1035 47.3333 36.1478 46.875 36.2363C46.4167 36.3249 46.0234 36.4447 45.6953 36.5957C45.3672 36.7467 45.1146 36.9264 44.9375 37.1348C44.7604 37.3379 44.6719 37.5566 44.6719 37.791V42.8535C44.6719 43.0827 44.7604 43.3014 44.9375 43.5098C45.1146 43.7129 45.3672 43.8926 45.6953 44.0488C46.0234 44.1999 46.4167 44.3197 46.875 44.4082C47.3333 44.4967 47.8438 44.541 48.4062 44.541C48.9896 44.541 49.5104 44.4967 49.9688 44.4082C50.4323 44.3145 50.8229 44.1895 51.1406 44.0332C51.4635 43.877 51.7109 43.6973 51.8828 43.4941C52.0547 43.291 52.1406 43.0775 52.1406 42.8535V41.7285C51.6562 41.7285 51.2214 41.7415 50.8359 41.7676C50.4557 41.7936 50.1302 41.8197 49.8594 41.8457C49.5417 41.8822 49.2604 41.9212 49.0156 41.9629L49.2188 40.0723C50.0156 40.0098 50.7656 39.9785 51.4688 39.9785C52.4115 39.9785 53.3125 40.0254 54.1719 40.1191V43.4473C54.1719 43.8639 54.0182 44.2467 53.7109 44.5957C53.4036 44.9395 52.987 45.2363 52.4609 45.4863C51.9401 45.7363 51.3307 45.9316 50.6328 46.0723C49.9349 46.2077 49.1927 46.2754 48.4062 46.2754C47.6198 46.2754 46.8776 46.2077 46.1797 46.0723C45.4818 45.9316 44.8698 45.7363 44.3438 45.4863C43.8229 45.2363 43.4089 44.9395 43.1016 44.5957C42.7943 44.2467 42.6406 43.8639 42.6406 43.4473V37.1973C42.6406 36.7806 42.7943 36.3978 43.1016 36.0488C43.4089 35.6999 43.8229 35.4004 44.3438 35.1504C44.8698 34.9004 45.4818 34.7051 46.1797 34.5645C46.8776 34.4238 47.6198 34.3535 48.4062 34.3535ZM63.375 37.3535C63.375 37.8952 63.3568 38.4603 63.3203 39.0488C63.2839 39.6322 63.2135 40.2337 63.1094 40.8535H61.2188C61.2656 40.6764 61.3099 40.4837 61.3516 40.2754C61.3828 40.0983 61.4115 39.8926 61.4375 39.6582C61.4688 39.4186 61.4844 39.166 61.4844 38.9004C61.026 38.9108 60.6458 38.9551 60.3438 39.0332C60.0469 39.1061 59.7995 39.1947 59.6016 39.2988C59.4036 39.3978 59.2422 39.4993 59.1172 39.6035C58.9922 39.7077 58.8802 39.791 58.7812 39.8535V46.2598H56.7812V39.8066C56.7604 39.64 56.7109 39.4993 56.6328 39.3848C56.5599 39.2702 56.4818 39.1764 56.3984 39.1035C56.3047 39.015 56.1979 38.9421 56.0781 38.8848L56.9062 37.3535C57.099 37.4212 57.2891 37.5124 57.4766 37.627C57.638 37.7259 57.8073 37.8535 57.9844 38.0098C58.1667 38.1608 58.3281 38.3483 58.4688 38.5723C58.7344 38.39 58.9792 38.2363 59.2031 38.1113C59.4271 37.9811 59.6432 37.8717 59.8516 37.7832C60.0651 37.6947 60.2839 37.627 60.5078 37.5801C60.737 37.528 60.987 37.4863 61.2578 37.4551C61.5339 37.4238 61.8411 37.403 62.1797 37.3926C62.5234 37.377 62.9219 37.3639 63.375 37.3535ZM74.2031 43.0723C74.0729 42.9577 73.9115 42.8457 73.7188 42.7363C73.526 42.627 73.2891 42.5306 73.0078 42.4473C72.7266 42.3587 72.3906 42.2884 72 42.2363C71.6146 42.179 71.1615 42.1504 70.6406 42.1504C70.1771 42.1504 69.737 42.1608 69.3203 42.1816C68.9089 42.1973 68.5469 42.2493 68.2344 42.3379C67.9219 42.4212 67.6745 42.5566 67.4922 42.7441C67.3099 42.9316 67.2188 43.1921 67.2188 43.5254V44.5254C67.6771 44.5983 68.1823 44.6582 68.7344 44.7051C69.2865 44.752 69.901 44.7754 70.5781 44.7754C71.1198 44.7754 71.6953 44.7572 72.3047 44.7207C72.9193 44.679 73.5521 44.5983 74.2031 44.4785V43.0723ZM70.6875 37.3535C70.9479 37.3535 71.263 37.3665 71.6328 37.3926C72.0026 37.4186 72.388 37.4655 72.7891 37.5332C73.1901 37.5957 73.5859 37.6842 73.9766 37.7988C74.3724 37.9082 74.7266 38.054 75.0391 38.2363C75.3568 38.4134 75.612 38.627 75.8047 38.877C75.9974 39.127 76.0938 39.4212 76.0938 39.7598V45.8066C75.6562 45.8952 75.1615 45.9707 74.6094 46.0332C74.1354 46.0905 73.5703 46.1426 72.9141 46.1895C72.2578 46.2363 71.526 46.2598 70.7188 46.2598C69.9167 46.2598 69.0625 46.2259 68.1562 46.1582C67.2552 46.0905 66.3125 45.9733 65.3281 45.8066V42.9941C65.3281 42.6921 65.3984 42.429 65.5391 42.2051C65.6849 41.9759 65.8828 41.7806 66.1328 41.6191C66.3828 41.4577 66.6771 41.3249 67.0156 41.2207C67.3542 41.1165 67.7188 41.0332 68.1094 40.9707C68.5 40.9082 68.9062 40.8665 69.3281 40.8457C69.75 40.8197 70.1719 40.8066 70.5938 40.8066C71.2344 40.8066 71.7786 40.8483 72.2266 40.9316C72.6797 41.0098 73.0547 41.0957 73.3516 41.1895C73.6953 41.304 73.9792 41.4316 74.2031 41.5723V40.3066C74.2031 40.0931 74.151 39.9108 74.0469 39.7598C73.9427 39.6035 73.8021 39.4733 73.625 39.3691C73.4479 39.2598 73.2448 39.1738 73.0156 39.1113C72.7865 39.0436 72.5469 38.9915 72.2969 38.9551C72.0469 38.9186 71.7917 38.8952 71.5312 38.8848C71.276 38.8743 71.0365 38.8691 70.8125 38.8691C70.5781 38.8691 70.3281 38.877 70.0625 38.8926C69.7969 38.903 69.5312 38.9264 69.2656 38.9629C69.0052 38.9993 68.7526 39.0514 68.5078 39.1191C68.2682 39.1816 68.0547 39.2676 67.8672 39.377C67.6797 39.4863 67.5286 39.6191 67.4141 39.7754C67.3047 39.9264 67.25 40.1087 67.25 40.3223L65.3125 39.8223C65.3125 39.4733 65.3984 39.1712 65.5703 38.916C65.7422 38.6556 65.9688 38.4342 66.25 38.252C66.5365 38.0697 66.8646 37.9212 67.2344 37.8066C67.6042 37.6868 67.987 37.5957 68.3828 37.5332C68.7839 37.4655 69.1823 37.4186 69.5781 37.3926C69.974 37.3665 70.3438 37.3535 70.6875 37.3535ZM83.4219 37.3535C83.8802 37.3535 84.3594 37.4056 84.8594 37.5098C85.3646 37.6139 85.8542 37.7493 86.3281 37.916V34.3691H88.375V45.6504C88.099 45.7337 87.7682 45.8118 87.3828 45.8848C87.0026 45.9577 86.5938 46.0228 86.1562 46.0801C85.7188 46.1322 85.263 46.1764 84.7891 46.2129C84.3203 46.2441 83.8646 46.2598 83.4219 46.2598C82.6198 46.2598 81.9036 46.2051 81.2734 46.0957C80.6432 45.9811 80.1094 45.8066 79.6719 45.5723C79.2344 45.3379 78.901 45.041 78.6719 44.6816C78.4427 44.3223 78.3281 43.8952 78.3281 43.4004V40.2129C78.3281 39.7181 78.4427 39.291 78.6719 38.9316C78.901 38.5723 79.2344 38.2754 79.6719 38.041C80.1094 37.8066 80.6432 37.6348 81.2734 37.5254C81.9036 37.4108 82.6198 37.3535 83.4219 37.3535ZM83.9844 44.8066C84.1927 44.8066 84.4036 44.7962 84.6172 44.7754C84.8359 44.7546 85.0469 44.7259 85.25 44.6895C85.4583 44.653 85.6536 44.6113 85.8359 44.5645C86.0234 44.5176 86.1875 44.4681 86.3281 44.416V39.5098C85.9688 39.3379 85.599 39.1973 85.2188 39.0879C84.8438 38.9733 84.4323 38.916 83.9844 38.916C83.6615 38.916 83.3464 38.9238 83.0391 38.9395C82.737 38.9499 82.4531 38.9785 82.1875 39.0254C81.9219 39.0671 81.6771 39.1296 81.4531 39.2129C81.2292 39.291 81.0365 39.3978 80.875 39.5332C80.7188 39.6686 80.5964 39.8353 80.5078 40.0332C80.4193 40.2311 80.375 40.4681 80.375 40.7441V43.041C80.375 43.4629 80.4714 43.7936 80.6641 44.0332C80.862 44.2676 81.125 44.4421 81.4531 44.5566C81.7812 44.6712 82.1641 44.7415 82.6016 44.7676C83.0391 44.7936 83.5 44.8066 83.9844 44.8066Z" fill="black"/>
<defs>
<clipPath id="clip0_177_2">
<rect width="41" height="65" fill="white" transform="translate(10.1201)"/>
</clipPath>
</defs>
</svg>
